<svg width="1619" height="1617" viewBox="0 0 1619 1617" fill="none" xmlns="http://www.w3.org/2000/svg">
<path d="M919.927 280.612C963.958 220.684 985.974 190.719 1006.55 197.348C1027.13 203.978 1027.51 241.158 1028.28 315.52L1029.17 402.442C1029.58 441.728 1029.78 461.371 1042.77 470.187C1055.76 479.003 1074.09 471.938 1110.74 457.81L1191.15 426.823C1260.18 400.219 1294.7 386.916 1308.46 403.535C1322.22 420.153 1302.72 451.585 1263.71 514.447L1216.77 590.079C1196.24 623.165 1185.97 639.708 1192.11 654.059C1198.25 668.41 1217.3 672.417 1255.4 680.431L1341.14 698.462C1412.85 713.545 1448.71 721.086 1451.28 742.433C1453.85 763.78 1420.81 779.615 1354.72 811.286L1273.58 850.171C1238.73 866.874 1221.3 875.226 1218.7 890.539C1216.09 905.853 1229.78 919.494 1257.16 946.778L1320.61 1010.01C1372.37 1061.6 1398.26 1087.39 1388.81 1106.68C1379.36 1125.97 1343.11 1121.32 1270.62 1112.02L1182.65 1100.74C1144.2 1095.8 1124.98 1093.34 1114.47 1104.81C1103.96 1116.29 1108.11 1135.22 1116.4 1173.08L1135.61 1260.77C1151.35 1332.69 1159.23 1368.64 1140.77 1379.74C1122.31 1390.83 1094.25 1367 1038.15 1319.33L972.095 1263.22C942.268 1237.88 927.355 1225.21 912.214 1229.21C897.073 1233.2 890.349 1251.58 876.902 1288.33L846.682 1370.93C821.166 1440.67 808.408 1475.54 786.81 1474.93C765.212 1474.32 754.446 1438.78 732.913 1367.71L707.899 1285.16C696.491 1247.5 690.787 1228.67 675.831 1223.86C660.876 1219.04 645.254 1230.99 614.011 1254.91L545.508 1307.33C486.536 1352.47 457.051 1375.04 439.158 1362.92C421.266 1350.81 431.263 1315.05 451.258 1243.53L474.939 1158.83C485.476 1121.14 490.745 1102.29 480.783 1090.21C470.821 1078.13 451.317 1079.71 412.308 1082.87L325.921 1089.87C252.543 1095.82 215.855 1098.79 207.342 1079.01C198.829 1059.22 226.212 1034.62 280.98 985.43L347.761 925.444C376.595 899.544 391.012 886.594 389.18 871.141C387.347 855.688 370.301 846.469 336.209 828.031L258.194 785.838C193.909 751.071 161.767 733.688 165.353 712.509C168.939 691.331 205.012 685.498 277.158 673.832L365.586 659.532C403.742 653.362 422.82 650.277 429.645 636.324C436.471 622.372 427.196 605.417 408.647 571.507L365.467 492.569C330.298 428.276 312.714 396.13 327.262 380.298C341.81 364.466 375.325 379.275 442.356 408.893L522.493 444.303C558.111 460.041 575.919 467.91 589.279 459.84C602.639 451.77 603.961 432.345 606.605 393.496L612.649 304.69C617.672 230.878 620.184 193.972 641.058 188.512C661.933 183.053 682.192 214.003 722.711 275.903L769.904 347.999C791.421 380.87 802.18 397.306 817.872 397.73C833.564 398.154 845.195 382.324 868.457 350.664L919.927 280.612Z" fill="#F4DD0C"/>
</svg>
